<svg width="70" height="70" viewBox="0 0 70 70" fill="none" xmlns="http://www.w3.org/2000/svg">
<circle cx="35" cy="35" r="35" fill="#2A3633"/>
<path d="M16 21C14.5 29 10.5 37.5 3 48C9.5 42.5 13 38.5 16 34L23.0902 48C30 26.5 36.5 18 60 11C35.5 13.5 26.1885 22.9706 22.5 31L16 21Z" fill="white"/>
<path d="M29.096 57.372C29.064 57.852 29.14 58.272 29.324 58.632C29.516 59 29.804 59.284 30.188 59.484C30.572 59.692 31.04 59.796 31.592 59.796C32.152 59.796 32.652 59.676 33.092 59.436C33.54 59.196 33.912 58.856 34.208 58.416C34.504 57.976 34.696 57.464 34.784 56.88L35.708 51.48H34.448L33.512 56.88C33.464 57.232 33.348 57.544 33.164 57.816C32.98 58.088 32.752 58.296 32.48 58.44C32.208 58.592 31.92 58.668 31.616 58.668C31.32 58.668 31.076 58.612 30.884 58.5C30.692 58.388 30.552 58.232 30.464 58.032C30.384 57.84 30.348 57.62 30.356 57.372H29.096ZM29.528 54.204C29.464 54.732 29.512 55.212 29.672 55.644C29.832 56.076 30.088 56.42 30.44 56.676C30.792 56.924 31.22 57.048 31.724 57.048C32.092 57.048 32.428 56.976 32.732 56.832C33.044 56.688 33.316 56.488 33.548 56.232C33.788 55.968 33.984 55.664 34.136 55.32C34.288 54.976 34.392 54.608 34.448 54.216C34.496 53.832 34.496 53.472 34.448 53.136C34.4 52.8 34.3 52.5 34.148 52.236C33.996 51.964 33.792 51.752 33.536 51.6C33.28 51.44 32.968 51.36 32.6 51.36C32.096 51.352 31.624 51.476 31.184 51.732C30.752 51.98 30.388 52.32 30.092 52.752C29.796 53.176 29.608 53.66 29.528 54.204ZM30.848 54.216C30.904 53.888 31.024 53.592 31.208 53.328C31.4 53.056 31.632 52.848 31.904 52.704C32.184 52.552 32.48 52.48 32.792 52.488C33 52.488 33.184 52.536 33.344 52.632C33.512 52.72 33.648 52.844 33.752 53.004C33.856 53.164 33.928 53.348 33.968 53.556C34.016 53.756 34.02 53.972 33.98 54.204C33.94 54.444 33.86 54.672 33.74 54.888C33.628 55.096 33.484 55.28 33.308 55.44C33.14 55.592 32.952 55.712 32.744 55.8C32.544 55.888 32.34 55.928 32.132 55.92C31.82 55.92 31.56 55.844 31.352 55.692C31.144 55.532 30.996 55.324 30.908 55.068C30.828 54.804 30.808 54.52 30.848 54.216ZM38.52 51.48H37.248L36.288 57H37.572L38.52 51.48ZM39.9 52.848L40.68 51.78C40.552 51.644 40.408 51.54 40.248 51.468C40.096 51.396 39.92 51.36 39.72 51.36C39.408 51.36 39.112 51.472 38.832 51.696C38.552 51.912 38.316 52.196 38.124 52.548C37.932 52.892 37.8 53.252 37.728 53.628L38.1 53.88C38.14 53.656 38.204 53.444 38.292 53.244C38.388 53.044 38.516 52.88 38.676 52.752C38.836 52.624 39.028 52.564 39.252 52.572C39.388 52.572 39.504 52.6 39.6 52.656C39.704 52.704 39.804 52.768 39.9 52.848ZM40.6042 54.24C40.5322 54.768 40.5922 55.252 40.7842 55.692C40.9762 56.124 41.2722 56.468 41.6722 56.724C42.0722 56.98 42.5442 57.108 43.0882 57.108C43.6482 57.108 44.1642 56.984 44.6362 56.736C45.1082 56.48 45.5002 56.136 45.8122 55.704C46.1242 55.272 46.3162 54.784 46.3882 54.24C46.4602 53.712 46.4002 53.232 46.2082 52.8C46.0162 52.36 45.7202 52.012 45.3202 51.756C44.9282 51.492 44.4562 51.36 43.9042 51.36C43.3442 51.36 42.8242 51.488 42.3442 51.744C41.8722 51.992 41.4802 52.332 41.1682 52.764C40.8642 53.196 40.6762 53.688 40.6042 54.24ZM41.9002 54.24C41.9482 53.92 42.0602 53.628 42.2362 53.364C42.4202 53.1 42.6482 52.888 42.9202 52.728C43.1922 52.568 43.4842 52.492 43.7962 52.5C44.1082 52.5 44.3682 52.584 44.5762 52.752C44.7842 52.92 44.9322 53.136 45.0202 53.4C45.1082 53.656 45.1322 53.936 45.0922 54.24C45.0442 54.552 44.9282 54.844 44.7442 55.116C44.5682 55.38 44.3442 55.588 44.0722 55.74C43.8002 55.892 43.5042 55.968 43.1842 55.968C42.8722 55.968 42.6122 55.888 42.4042 55.728C42.2042 55.56 42.0602 55.344 41.9722 55.08C41.8842 54.816 41.8602 54.536 41.9002 54.24ZM48.6907 54.84L49.2787 51.48H47.9827L47.3707 54.984C47.3147 55.368 47.3307 55.724 47.4187 56.052C47.5067 56.372 47.6747 56.628 47.9227 56.82C48.1707 57.012 48.5027 57.108 48.9187 57.108C49.2947 57.108 49.6227 57.028 49.9027 56.868C50.1907 56.7 50.4307 56.472 50.6227 56.184L50.4907 57H51.7867L52.7347 51.48H51.4507L50.8507 54.888C50.8107 55.112 50.7227 55.316 50.5867 55.5C50.4587 55.676 50.2947 55.816 50.0947 55.92C49.9027 56.016 49.6867 56.064 49.4467 56.064C49.2067 56.064 49.0267 56.008 48.9067 55.896C48.7947 55.776 48.7227 55.624 48.6907 55.44C48.6667 55.248 48.6667 55.048 48.6907 54.84ZM54.1665 59.628L55.5345 51.48H54.2745L52.8585 59.64L54.1665 59.628ZM59.5185 54.24C59.5825 53.712 59.5385 53.228 59.3865 52.788C59.2345 52.348 58.9825 51.996 58.6305 51.732C58.2865 51.468 57.8585 51.336 57.3465 51.336C56.9705 51.336 56.6265 51.412 56.3145 51.564C56.0105 51.716 55.7425 51.928 55.5105 52.2C55.2785 52.464 55.0865 52.772 54.9345 53.124C54.7905 53.476 54.6905 53.848 54.6345 54.24C54.5865 54.608 54.5825 54.968 54.6225 55.32C54.6705 55.664 54.7625 55.976 54.8985 56.256C55.0425 56.528 55.2425 56.744 55.4985 56.904C55.7545 57.064 56.0665 57.144 56.4345 57.144C56.9465 57.144 57.4225 57.02 57.8625 56.772C58.3025 56.516 58.6705 56.168 58.9665 55.728C59.2625 55.28 59.4465 54.784 59.5185 54.24ZM58.1985 54.24C58.1505 54.568 58.0305 54.864 57.8385 55.128C57.6465 55.384 57.4145 55.588 57.1425 55.74C56.8705 55.892 56.5745 55.964 56.2545 55.956C56.0465 55.948 55.8625 55.9 55.7025 55.812C55.5425 55.724 55.4105 55.6 55.3065 55.44C55.2025 55.28 55.1305 55.1 55.0905 54.9C55.0505 54.692 55.0425 54.472 55.0665 54.24C55.1145 53.992 55.1945 53.764 55.3065 53.556C55.4265 53.348 55.5705 53.168 55.7385 53.016C55.9145 52.856 56.1025 52.732 56.3025 52.644C56.5025 52.556 56.7105 52.512 56.9265 52.512C57.2385 52.512 57.4945 52.592 57.6945 52.752C57.9025 52.904 58.0505 53.112 58.1385 53.376C58.2265 53.632 58.2465 53.92 58.1985 54.24Z" fill="#E3EEEB"/>
<path d="M30.736 48H36.964L37.396 45.498H31.168L30.736 48ZM32.464 37.902H38.674L39.124 35.4H32.914L32.464 37.902ZM31.654 42.6H37.522L37.954 40.152H32.086L31.654 42.6ZM30.934 35.4L28.792 48H31.654L33.832 35.4H30.934ZM39.7533 38.118H43.1373L41.4453 48H44.4333L46.1433 38.118H49.4913L49.9593 35.4H40.2393L39.7533 38.118ZM51.7614 41.7C51.8454 41.172 52.0074 40.68 52.2474 40.224C52.4994 39.768 52.8054 39.366 53.1654 39.018C53.5374 38.658 53.9574 38.382 54.4254 38.19C54.8934 37.998 55.3974 37.902 55.9374 37.902C56.4774 37.902 56.9334 38.01 57.3054 38.226C57.6894 38.43 57.9894 38.712 58.2054 39.072C58.4334 39.432 58.5834 39.84 58.6554 40.296C58.7274 40.74 58.7274 41.208 58.6554 41.7C58.5714 42.216 58.4034 42.708 58.1514 43.176C57.9114 43.632 57.6054 44.034 57.2334 44.382C56.8614 44.73 56.4414 45.006 55.9734 45.21C55.5054 45.402 55.0014 45.492 54.4614 45.48C53.9334 45.48 53.4774 45.378 53.0934 45.174C52.7214 44.958 52.4214 44.676 52.1934 44.328C51.9774 43.968 51.8334 43.566 51.7614 43.122C51.6894 42.666 51.6894 42.192 51.7614 41.7ZM48.5934 41.7C48.4734 42.6 48.5094 43.452 48.7014 44.256C48.8934 45.06 49.2354 45.774 49.7274 46.398C50.2194 47.01 50.8374 47.496 51.5814 47.856C52.3374 48.216 53.1954 48.396 54.1554 48.396C55.1274 48.396 56.0454 48.228 56.9094 47.892C57.7734 47.544 58.5474 47.064 59.2314 46.452C59.9274 45.84 60.4974 45.132 60.9414 44.328C61.3854 43.512 61.6794 42.636 61.8234 41.7C61.9434 40.8 61.9014 39.954 61.6974 39.162C61.4934 38.358 61.1394 37.656 60.6354 37.056C60.1434 36.444 59.5194 35.97 58.7634 35.634C58.0194 35.286 57.1734 35.112 56.2254 35.112C55.2774 35.112 54.3714 35.28 53.5074 35.616C52.6434 35.94 51.8694 36.402 51.1854 37.002C50.5014 37.602 49.9314 38.304 49.4754 39.108C49.0314 39.9 48.7374 40.764 48.5934 41.7Z" fill="white"/>
</svg>
